<?xml version="1.0" encoding="UTF-8"?> <svg xmlns="http://www.w3.org/2000/svg" width="114" height="110" viewBox="0 0 114 110" fill="none"><path d="M34.6493 53.132C31.6351 49.546 23.0668 43.5631 12.9912 51.4673C17.8621 57.4776 26.6429 59.884 34.6493 53.132Z" fill="#FFCC00"></path><path d="M34.6493 53.132C31.6351 49.546 23.0668 43.5631 12.9912 51.4673C17.8621 57.4776 26.6429 59.884 34.6493 53.132Z" fill="url(#paint0_linear_273_95)"></path><path d="M24.8753 44.6748C22.7072 36.2308 14.2601 32.9984 7.12305 36.7769C8.57826 44.0772 16.9238 48.9941 24.8753 44.6748Z" fill="#FFCC00"></path><path d="M24.8753 44.6748C22.7072 36.2308 14.2601 32.9984 7.12305 36.7769C8.57826 44.0772 16.9238 48.9941 24.8753 44.6748Z" fill="url(#paint1_linear_273_95)"></path><path d="M19.1398 33.4877C20.7573 23.8037 14.7688 18.1611 7.10156 18.2391C4.88549 26.7226 10.9851 33.4309 19.1398 33.4877Z" fill="#FFCC00"></path><path d="M19.1398 33.4877C20.7573 23.8037 14.7688 18.1611 7.10156 18.2391C4.88549 26.7226 10.9851 33.4309 19.1398 33.4877Z" fill="url(#paint2_linear_273_95)"></path><path d="M18.5728 19.8733C24.4721 12.5236 23.7469 5.89914 16.3969 0C10.4979 7.34962 11.2232 13.974 18.5728 19.8733Z" fill="#FFCC00"></path><path d="M18.5728 19.8733C24.4721 12.5236 23.7469 5.89914 16.3969 0C10.4979 7.34962 11.2232 13.974 18.5728 19.8733Z" fill="url(#paint3_linear_273_95)"></path><path d="M77.9707 53.132C80.985 49.546 89.553 43.5631 99.629 51.4673C94.7583 57.4776 85.9775 59.884 77.9707 53.132Z" fill="#FFCC00"></path><path d="M77.9707 53.132C80.985 49.546 89.553 43.5631 99.629 51.4673C94.7583 57.4776 85.9775 59.884 77.9707 53.132Z" fill="url(#paint4_linear_273_95)"></path><path d="M87.7422 44.6748C89.9108 36.2308 98.358 32.9984 105.495 36.7769C104.04 44.0772 95.6938 48.9941 87.7422 44.6748Z" fill="#FFCC00"></path><path d="M87.7422 44.6748C89.9108 36.2308 98.358 32.9984 105.495 36.7769C104.04 44.0772 95.6938 48.9941 87.7422 44.6748Z" fill="url(#paint5_linear_273_95)"></path><path d="M93.4807 33.4877C91.8623 23.8037 97.8515 18.1611 105.519 18.2391C107.735 26.7226 101.635 33.4309 93.4807 33.4877Z" fill="#FFCC00"></path><path d="M93.4807 33.4877C91.8623 23.8037 97.8515 18.1611 105.519 18.2391C107.735 26.7226 101.635 33.4309 93.4807 33.4877Z" fill="url(#paint6_linear_273_95)"></path><path d="M94.0462 19.8733C88.1475 12.5236 88.8724 5.89914 96.2222 0C102.121 7.34962 101.396 13.974 94.0462 19.8733Z" fill="#FFCC00"></path><path d="M94.0462 19.8733C88.1475 12.5236 88.8724 5.89914 96.2222 0C102.121 7.34962 101.396 13.974 94.0462 19.8733Z" fill="url(#paint7_linear_273_95)"></path><path d="M56.8417 5.48047C45.804 5.48047 36.8496 14.4348 36.8496 25.4726C36.8496 30.9858 39.0908 35.9839 42.6999 39.6035C46.3195 43.2231 54.8425 48.4631 55.3475 53.9662C55.4212 54.7869 56.021 55.4604 56.8417 55.4604C57.6624 55.4604 58.2622 54.7869 58.3358 53.9662C58.8409 48.4631 67.3533 43.2336 70.9729 39.614C74.5926 35.9839 76.8338 30.9858 76.8338 25.4726C76.8338 14.4348 67.8794 5.48047 56.8417 5.48047Z" fill="#FF4433"></path><path d="M56.8413 32.3126C53.0639 32.3126 50.002 29.2507 50.002 25.4727C50.002 21.6952 53.0639 18.6333 56.8413 18.6333C60.6188 18.6333 63.6807 21.6952 63.6807 25.4727C63.6807 29.2507 60.6188 32.3126 56.8413 32.3126Z" fill="white"></path><path d="M4.72596 73.7808L1.91232 78.2282H0L3.74717 72.4654L0.264643 67H2.45618L5.05274 71.1499L7.6025 67H9.53017L6.0323 72.4341L9.74802 78.2282H7.5864L4.72596 73.7808ZM14.0851 78.3848C13.5151 78.3848 12.9866 78.2909 12.4995 78.1029C12.0124 77.915 11.5875 77.6436 11.2246 77.2886C10.8726 76.9232 10.5926 76.4795 10.3855 75.9576C10.1883 75.4355 10.0901 74.8352 10.0901 74.1566C10.0901 73.478 10.1883 72.8777 10.3855 72.3557C10.5926 71.8338 10.8726 71.3952 11.2246 71.0403C11.5875 70.6749 12.0124 70.4035 12.4995 70.226C12.9866 70.0381 13.5151 69.9441 14.0851 69.9441C14.6558 69.9441 15.1843 70.0381 15.6714 70.226C16.1585 70.4035 16.5835 70.6749 16.9455 71.0403C17.3083 71.3952 17.5937 71.8338 17.8008 72.3557C18.0079 72.8777 18.1115 73.478 18.1115 74.1566C18.1115 74.8352 18.0079 75.4355 17.8008 75.9576C17.5937 76.4795 17.3083 76.9232 16.9455 77.2886C16.5835 77.6436 16.1585 77.915 15.6714 78.1029C15.1843 78.2909 14.6558 78.3848 14.0851 78.3848ZM14.0851 76.8658C14.7072 76.8658 15.2204 76.6466 15.6246 76.2081C16.0388 75.7696 16.2459 75.0858 16.2459 74.1566C16.2459 73.2379 16.0388 72.5593 15.6246 72.1208C15.2204 71.672 14.7072 71.4475 14.0851 71.4475C13.4737 71.4475 12.9605 71.672 12.5463 72.1208C12.1421 72.5593 11.9403 73.2379 11.9403 74.1566C11.9403 75.0858 12.1421 75.7696 12.5463 76.2081C12.9605 76.6466 13.4737 76.8658 14.0851 76.8658ZM24.0671 78.3848C23.4557 78.3848 22.9272 78.2491 22.4815 77.9777C22.0458 77.6958 21.6937 77.32 21.4237 76.8502V81H19.6203V70.1007H21.2688L21.393 71.5414C21.6623 71.0507 22.0197 70.6644 22.4654 70.3826C22.9111 70.0902 23.4557 69.9441 24.0977 69.9441C24.5749 69.9441 25.0259 70.0328 25.4501 70.2103C25.8858 70.3774 26.264 70.6384 26.5854 70.9933C26.9068 71.3378 27.1607 71.7763 27.3471 72.3087C27.5442 72.8308 27.6424 73.4467 27.6424 74.1566C27.6424 74.877 27.5442 75.5034 27.3471 76.0358C27.1607 76.5579 26.9014 76.9963 26.57 77.3513C26.2486 77.6958 25.8705 77.9567 25.4348 78.1342C24.9998 78.3013 24.5434 78.3848 24.0671 78.3848ZM23.6314 76.8658C24.2742 76.8658 24.7927 76.6466 25.1862 76.2081C25.5905 75.7592 25.7922 75.0754 25.7922 74.1566C25.7922 73.2483 25.5905 72.5697 25.1862 72.1208C24.7927 71.672 24.2795 71.4475 23.6475 71.4475C23.3261 71.4475 23.0307 71.5049 22.7607 71.6197C22.4915 71.7241 22.2529 71.8912 22.0458 72.1208C21.8487 72.3505 21.6937 72.6376 21.5794 72.9821C21.4651 73.3162 21.4084 73.7077 21.4084 74.1566C21.4084 74.616 21.4651 75.018 21.5794 75.3624C21.6937 75.6965 21.8487 75.9784 22.0458 76.2081C22.243 76.4273 22.4761 76.5943 22.7454 76.7092C23.0254 76.8136 23.3207 76.8658 23.6314 76.8658ZM32.6675 78.3848C32.0976 78.3848 31.5691 78.2909 31.082 78.1029C30.5949 77.915 30.1699 77.6436 29.8071 77.2886C29.455 76.9232 29.175 76.4795 28.9679 75.9576C28.7708 75.4355 28.6726 74.8352 28.6726 74.1566C28.6726 73.478 28.7708 72.8777 28.9679 72.3557C29.175 71.8338 29.455 71.3952 29.8071 71.0403C30.1699 70.6749 30.5949 70.4035 31.082 70.226C31.5691 70.0381 32.0976 69.9441 32.6675 69.9441C33.2382 69.9441 33.7668 70.0381 34.2538 70.226C34.7409 70.4035 35.1659 70.6749 35.528 71.0403C35.8908 71.3952 36.1761 71.8338 36.3833 72.3557C36.5904 72.8777 36.6939 73.478 36.6939 74.1566C36.6939 74.8352 36.5904 75.4355 36.3833 75.9576C36.1761 76.4795 35.8908 76.9232 35.528 77.2886C35.1659 77.6436 34.7409 77.915 34.2538 78.1029C33.7668 78.2909 33.2382 78.3848 32.6675 78.3848ZM32.6675 76.8658C33.2896 76.8658 33.8028 76.6466 34.2071 76.2081C34.6213 75.7696 34.8284 75.0858 34.8284 74.1566C34.8284 73.2379 34.6213 72.5593 34.2071 72.1208C33.8028 71.672 33.2896 71.4475 32.6675 71.4475C32.0562 71.4475 31.543 71.672 31.1288 72.1208C30.7245 72.5593 30.5228 73.2379 30.5228 74.1566C30.5228 75.0858 30.7245 75.7696 31.1288 76.2081C31.543 76.6466 32.0562 76.8658 32.6675 76.8658ZM48.6189 78.2282H38.2028V70.1007H40.0062V76.7562H42.5091V70.1007H44.3125V76.7562H46.8002V70.1007H48.6189V78.2282ZM57.3843 77.6331C57.27 77.7062 57.1304 77.7898 56.9639 77.8837C56.7983 77.9673 56.6011 78.0455 56.3733 78.1186C56.1455 78.1916 55.8808 78.2543 55.5809 78.3065C55.2802 78.3587 54.9381 78.3848 54.5546 78.3848C53.0726 78.3848 51.9634 78.0142 51.2277 77.273C50.5021 76.5317 50.1393 75.4929 50.1393 74.1566C50.1393 73.4989 50.2382 72.909 50.4346 72.3871C50.6317 71.865 50.9063 71.4265 51.2592 71.0716C51.6113 70.7062 52.0309 70.4295 52.518 70.2416C53.0051 70.0433 53.5389 69.9441 54.1196 69.9441C54.7202 69.9441 55.2595 70.0433 55.7359 70.2416C56.2229 70.44 56.6226 70.7375 56.9333 71.1342C57.2439 71.531 57.4564 72.0217 57.5707 72.6063C57.695 73.1909 57.7003 73.8747 57.586 74.6577H52.0048C52.0777 75.399 52.3208 75.9575 52.7358 76.3334C53.15 76.6988 53.7982 76.8815 54.6788 76.8815C55.3216 76.8815 55.8555 76.8032 56.2805 76.6466C56.7154 76.4795 57.0836 76.3073 57.3843 76.1298V77.6331ZM54.1196 71.3848C53.5911 71.3848 53.1454 71.5466 52.7826 71.8703C52.4198 72.1939 52.1812 72.6741 52.0669 73.311H55.8601C55.8808 72.6533 55.7359 72.1678 55.4252 71.8546C55.1145 71.5414 54.6788 71.3848 54.1196 71.3848ZM66.007 77.6331C65.8935 77.7062 65.7531 77.7898 65.5874 77.8837C65.4217 77.9673 65.2246 78.0455 64.9968 78.1186C64.769 78.1916 64.5043 78.2543 64.2036 78.3065C63.9029 78.3587 63.5616 78.3848 63.178 78.3848C61.696 78.3848 60.5868 78.0142 59.8512 77.273C59.1256 76.5317 58.7627 75.4929 58.7627 74.1566C58.7627 73.4989 58.8609 72.909 59.0581 72.3871C59.2552 71.865 59.5298 71.4265 59.8819 71.0716C60.2348 70.7062 60.6544 70.4295 61.1414 70.2416C61.6285 70.0433 62.1624 69.9441 62.7423 69.9441C63.3437 69.9441 63.8822 70.0433 64.3593 70.2416C64.8464 70.44 65.2453 70.7375 65.5567 71.1342C65.8674 71.531 66.0799 72.0217 66.1934 72.6063C66.3185 73.1909 66.3231 73.8747 66.2095 74.6577H60.6283C60.7011 75.399 60.9443 75.9575 61.3593 76.3334C61.7735 76.6988 62.4209 76.8815 63.3023 76.8815C63.9451 76.8815 64.4782 76.8032 64.9032 76.6466C65.3389 76.4795 65.7063 76.3073 66.007 76.1298V77.6331ZM62.7423 71.3848C62.2138 71.3848 61.7681 71.5466 61.4053 71.8703C61.0425 72.1939 60.8047 72.6741 60.6904 73.311H64.4836C64.5043 72.6533 64.3593 72.1678 64.0487 71.8546C63.7372 71.5414 63.3023 71.3848 62.7423 71.3848ZM78.8701 72.3401L76.4914 77.4452H75.1705L72.9314 72.2931V78.2282H71.2991V70.1007H73.7714L75.979 75.1432L78.3109 70.1007H80.6735V78.2282H78.8701V72.3401ZM89.4481 77.6331C89.3338 77.7062 89.1942 77.7898 89.0278 77.8837C88.8621 77.9673 88.665 78.0455 88.4371 78.1186C88.2093 78.1916 87.9447 78.2543 87.6448 78.3065C87.3441 78.3587 87.0019 78.3848 86.6184 78.3848C85.1364 78.3848 84.0272 78.0142 83.2916 77.273C82.5659 76.5317 82.2031 75.4929 82.2031 74.1566C82.2031 73.4989 82.302 72.909 82.4984 72.3871C82.6956 71.865 82.9702 71.4265 83.323 71.0716C83.6751 70.7062 84.0947 70.4295 84.5818 70.2416C85.0689 70.0433 85.6028 69.9441 86.1835 69.9441C86.7841 69.9441 87.3233 70.0433 87.7997 70.2416C88.2868 70.44 88.6864 70.7375 88.9971 71.1342C89.3078 71.531 89.5202 72.0217 89.6345 72.6063C89.7588 73.1909 89.7642 73.8747 89.6499 74.6577H84.0686C84.1415 75.399 84.3847 75.9575 84.7996 76.3334C85.2139 76.6988 85.862 76.8815 86.7426 76.8815C87.3855 76.8815 87.9194 76.8032 88.3443 76.6466C88.7793 76.4795 89.1474 76.3073 89.4481 76.1298V77.6331ZM86.1835 71.3848C85.655 71.3848 85.2093 71.5466 84.8464 71.8703C84.4836 72.1939 84.245 72.6741 84.1308 73.311H87.924C87.9447 72.6533 87.7997 72.1678 87.489 71.8546C87.1784 71.5414 86.7427 71.3848 86.1835 71.3848ZM95.0394 78.3848C94.3866 78.3848 93.8013 78.2909 93.2828 78.1029C92.765 77.9046 92.3239 77.6279 91.9611 77.273C91.599 76.9076 91.319 76.4639 91.1219 75.9419C90.9248 75.4198 90.8266 74.8248 90.8266 74.1566C90.8266 73.4989 90.9248 72.909 91.1219 72.3871C91.319 71.865 91.599 71.4265 91.9611 71.0716C92.3239 70.7062 92.7696 70.4295 93.2981 70.2416C93.8266 70.0433 94.418 69.9441 95.0708 69.9441C95.63 69.9441 96.1171 70.0067 96.5321 70.132C96.9571 70.2573 97.2938 70.4139 97.5423 70.6018V72.1052C97.2209 71.8963 96.8689 71.7345 96.4853 71.6197C96.1125 71.5049 95.6768 71.4475 95.1797 71.4475C93.5106 71.4475 92.6768 72.3505 92.6768 74.1566C92.6768 75.9627 93.4952 76.8658 95.133 76.8658C95.6615 76.8658 96.1125 76.8084 96.4853 76.6935C96.8689 76.5683 97.2209 76.4117 97.5423 76.2237V77.7271C97.2731 77.9046 96.9364 78.0612 96.5321 78.1969C96.1279 78.3221 95.63 78.3848 95.0394 78.3848ZM102.81 71.5727V78.2282H101.006V71.5727H98.5656V70.1007H105.298V71.5727H102.81ZM109.974 78.3848C109.403 78.3848 108.874 78.2909 108.387 78.1029C107.9 77.915 107.475 77.6436 107.113 77.2886C106.76 76.9232 106.48 76.4795 106.273 75.9576C106.076 75.4355 105.978 74.8352 105.978 74.1566C105.978 73.478 106.076 72.8777 106.273 72.3557C106.48 71.8338 106.76 71.3952 107.113 71.0403C107.475 70.6749 107.9 70.4035 108.387 70.226C108.874 70.0381 109.403 69.9441 109.974 69.9441C110.544 69.9441 111.072 70.0381 111.559 70.226C112.046 70.4035 112.471 70.6749 112.834 71.0403C113.197 71.3952 113.481 71.8338 113.689 72.3557C113.896 72.8777 114 73.478 114 74.1566C114 74.8352 113.896 75.4355 113.689 75.9576C113.481 76.4795 113.197 76.9232 112.834 77.2886C112.471 77.6436 112.046 77.915 111.559 78.1029C111.072 78.2909 110.544 78.3848 109.974 78.3848ZM109.974 76.8658C110.595 76.8658 111.108 76.6466 111.512 76.2081C111.927 75.7696 112.134 75.0858 112.134 74.1566C112.134 73.2379 111.927 72.5593 111.512 72.1208C111.108 71.672 110.595 71.4475 109.974 71.4475C109.361 71.4475 108.849 71.672 108.434 72.1208C108.03 72.5593 107.828 73.2379 107.828 74.1566C107.828 75.0858 108.03 75.7696 108.434 76.2081C108.849 76.6466 109.361 76.8658 109.974 76.8658Z" fill="white"></path><path d="M39.0951 109.701H25V106.269C26.8265 104.876 28.3901 103.642 29.6894 102.567C30.9871 101.493 32.043 100.507 32.8541 99.6119C33.6862 98.6965 34.2961 97.8408 34.6806 97.0448C35.0666 96.2288 35.2588 95.3831 35.2588 94.5074C35.2588 93.4328 34.9239 92.577 34.2555 91.9403C33.6051 91.3034 32.6724 90.985 31.4542 90.985C30.3577 90.985 29.3138 91.2438 28.3195 91.7612C27.3447 92.2586 26.4314 92.9055 25.5798 93.7015V90.2686C26.3909 89.5921 27.2936 89.0447 28.2879 88.6269C29.2823 88.2089 30.4704 88 31.8493 88C32.9457 88 33.9401 88.1492 34.8338 88.4478C35.726 88.7462 36.477 89.174 37.0853 89.7312C37.7147 90.2686 38.1923 90.9353 38.5168 91.7313C38.8622 92.5074 39.0334 93.383 39.0334 94.3582C39.0334 95.4329 38.8217 96.4477 38.3951 97.403C37.9685 98.3383 37.3286 99.2836 36.477 100.239C35.6449 101.194 34.5889 102.189 33.3107 103.224C32.0535 104.259 30.571 105.403 28.8662 106.657H39.0951V109.701ZM48.678 110C47.6026 110 46.6082 109.791 45.6949 109.373C44.7817 108.955 43.9901 108.299 43.3202 107.403C42.6714 106.507 42.1637 105.363 41.7987 103.97C41.4337 102.577 41.2505 100.915 41.2505 98.985C41.2505 97.0547 41.4337 95.403 41.7987 94.0298C42.1637 92.6368 42.6714 91.5024 43.3202 90.6268C43.9901 89.7313 44.7817 89.0746 45.6949 88.6566C46.6082 88.2388 47.6026 88.0298 48.678 88.0298C49.7535 88.0298 50.7373 88.2388 51.631 88.6566C52.5232 89.0746 53.2952 89.7214 53.9441 90.597C54.593 91.4727 55.1007 92.5969 55.4657 93.9701C55.8321 95.3433 56.0139 96.995 56.0139 98.9254C56.0139 100.856 55.8321 102.517 55.4657 103.91C55.1007 105.304 54.593 106.458 53.9441 107.373C53.2952 108.269 52.5232 108.935 51.631 109.373C50.7373 109.791 49.7535 110 48.678 110ZM48.6479 107.104C49.2563 107.104 49.7835 106.975 50.2311 106.716C50.6967 106.438 51.0827 105.98 51.3876 105.343C51.6911 104.706 51.9254 103.881 52.0876 102.866C52.2498 101.831 52.3309 100.547 52.3309 99.015C52.3309 97.5024 52.2498 96.2388 52.0876 95.2239C51.9449 94.189 51.7226 93.3533 51.4177 92.7164C51.1128 92.0795 50.7283 91.6219 50.2611 91.3432C49.815 91.0647 49.2863 90.9253 48.678 90.9253C48.0697 90.9253 47.532 91.0647 47.0648 91.3432C46.5977 91.6219 46.2026 92.0795 45.8767 92.7164C45.5733 93.3533 45.339 94.189 45.1767 95.2239C45.0145 96.2388 44.9334 97.5024 44.9334 99.015C44.9334 100.547 45.0145 101.831 45.1767 102.866C45.339 103.881 45.5733 104.706 45.8767 105.343C46.1816 105.98 46.5677 106.438 47.0348 106.716C47.5004 106.975 48.0381 107.104 48.6479 107.104ZM72.5678 109.701H58.4743V106.269C60.3007 104.876 61.8628 103.642 63.1621 102.567C64.4613 101.493 65.5157 100.507 66.3283 99.6119C67.1604 98.6965 67.7688 97.8408 68.1548 97.0448C68.5393 96.2288 68.7331 95.3831 68.7331 94.5074C68.7331 93.4328 68.3981 92.577 67.7282 91.9403C67.0793 91.3034 66.1451 90.985 64.927 90.985C63.832 90.985 62.7866 91.2438 61.7922 91.7612C60.8174 92.2586 59.9042 92.9055 59.0525 93.7015V90.2686C59.8636 89.5921 60.7678 89.0447 61.7622 88.6269C62.7565 88.2089 63.9431 88 65.3235 88C66.4185 88 67.4143 88.1492 68.3065 88.4478C69.2002 88.7462 69.9497 89.174 70.5596 89.7312C71.1889 90.2686 71.6651 90.9353 71.9895 91.7313C72.335 92.5074 72.5077 93.383 72.5077 94.3582C72.5077 95.4329 72.2944 96.4477 71.8678 97.403C71.4413 98.3383 70.8029 99.2836 69.9497 100.239C69.1176 101.194 68.0632 102.189 66.785 103.224C65.5263 104.259 64.0452 105.403 62.3404 106.657H72.5678V109.701ZM89 102.537C89 103.652 88.8077 104.667 88.4217 105.582C88.0372 106.497 87.489 107.284 86.7785 107.94C86.068 108.597 85.2164 109.104 84.222 109.463C83.2472 109.821 82.1508 110 80.9341 110C79.5748 110 78.4167 109.861 77.4629 109.582C76.5301 109.284 75.7386 108.915 75.0897 108.478V105.134C75.7791 105.612 76.5812 106.06 77.4944 106.478C78.4077 106.876 79.5026 107.075 80.7809 107.075C82.2423 107.075 83.3584 106.667 84.1304 105.851C84.901 105.015 85.287 103.95 85.287 102.657C85.287 101.323 84.9415 100.308 84.2521 99.6119C83.5822 98.9154 82.6389 98.5672 81.4207 98.5672C80.6292 98.5672 79.9803 98.7064 79.4726 98.985C78.9859 99.2437 78.6104 99.5224 78.3461 99.8209H75.6064V88.2984H87.9966V91.3731H78.7726V96.8059C79.1376 96.5274 79.5943 96.2786 80.1425 96.0597C80.7103 95.8407 81.4208 95.7313 82.2724 95.7313C83.2682 95.7313 84.1709 95.8806 84.982 96.179C85.8142 96.4776 86.5246 96.9153 87.1134 97.4926C87.7218 98.0696 88.1889 98.7861 88.5133 99.6418C88.8378 100.478 89 101.443 89 102.537Z" fill="white"></path><defs><linearGradient id="paint0_linear_273_95" x1="13.0195" y1="52.2249" x2="34.6137" y2="54.18" gradientUnits="userSpaceOnUse"><stop stop-color="#FFCC00"></stop><stop offset="1" stop-color="#FE9B21"></stop></linearGradient><linearGradient id="paint1_linear_273_95" x1="7.14104" y1="36.8" x2="24.4061" y2="45.7954" gradientUnits="userSpaceOnUse"><stop stop-color="#FFCC00"></stop><stop offset="1" stop-color="#FE9B21"></stop></linearGradient><linearGradient id="paint2_linear_273_95" x1="7.37766" y1="18.0604" x2="17.9413" y2="34.4126" gradientUnits="userSpaceOnUse"><stop stop-color="#FFCC00"></stop><stop offset="1" stop-color="#FE9B21"></stop></linearGradient><linearGradient id="paint3_linear_273_95" x1="16.5676" y1="0.00757595" x2="17.1419" y2="20.031" gradientUnits="userSpaceOnUse"><stop stop-color="#FFCC00"></stop><stop offset="1" stop-color="#FE9B21"></stop></linearGradient><linearGradient id="paint4_linear_273_95" x1="99.6006" y1="52.2249" x2="78.0063" y2="54.18" gradientUnits="userSpaceOnUse"><stop stop-color="#FFCC00"></stop><stop offset="1" stop-color="#FE9B21"></stop></linearGradient><linearGradient id="paint5_linear_273_95" x1="105.476" y1="36.8" x2="88.2115" y2="45.7954" gradientUnits="userSpaceOnUse"><stop stop-color="#FFCC00"></stop><stop offset="1" stop-color="#FE9B21"></stop></linearGradient><linearGradient id="paint6_linear_273_95" x1="105.242" y1="18.0604" x2="94.6791" y2="34.4126" gradientUnits="userSpaceOnUse"><stop stop-color="#FFCC00"></stop><stop offset="1" stop-color="#FE9B21"></stop></linearGradient><linearGradient id="paint7_linear_273_95" x1="96.0517" y1="0.00757593" x2="95.4772" y2="20.031" gradientUnits="userSpaceOnUse"><stop stop-color="#FFCC00"></stop><stop offset="1" stop-color="#FE9B21"></stop></linearGradient></defs></svg> 