<?xml version="1.0" encoding="UTF-8"?> <svg xmlns="http://www.w3.org/2000/svg" width="119" height="93" viewBox="0 0 119 93" fill="none"><path fill-rule="evenodd" clip-rule="evenodd" d="M13.6003 0.495117C5.80032 0.495117 -0.0496819 5.24512 0.000318098 13.4951H7.25032C7.15032 10.1951 9.25032 6.99512 13.6003 6.99512C16.9003 6.99512 19.0003 9.19512 19.0003 11.9951C19.0003 14.8951 16.7003 16.4951 13.0003 18.2951C8.15032 20.6451 5.25032 21.7451 0.000318098 23.4951V32.9951H27.0003V26.4951H9.80032C12.3063 25.4504 14.7463 24.3032 16.9503 23.2451C22.8003 20.4451 26.2503 17.2951 26.2503 11.6451C26.2503 4.84512 21.1503 0.495117 13.6003 0.495117ZM38.0003 7.49512H52.0003V0.995117H31.0003V32.9951H38.0003V7.49512ZM63.0003 0.995117H56.0003V32.9951H62.9503L76.0003 12.5451V32.9951H83.0003V0.995117H76.0003L63.0003 21.4451V0.995117ZM118.15 20.9951H110.9C109.8 24.5451 106.45 26.9951 102.5 26.9951C96.7503 26.9951 93.0003 22.0451 93.0003 16.9951C93.0003 11.9451 96.6503 6.99512 102.7 6.99512C106.7 6.99512 109.8 9.44512 110.9 12.9951H118.15C117.1 5.84512 111.45 0.495117 102.5 0.495117C92.6003 0.495117 86.0003 7.44512 86.0003 16.9951C86.0003 26.5451 92.6003 33.4951 102.5 33.4951C111.45 33.4951 117.1 28.2451 118.15 20.9951Z" fill="white"></path><path d="M111.98 62.32C110.728 62.3152 109.651 62.007 108.748 61.3955C107.85 60.784 107.159 59.8984 106.673 58.7385C106.193 57.5787 105.955 56.1835 105.96 54.5529C105.96 52.9271 106.2 51.5416 106.681 50.3963C107.166 49.251 107.858 48.3799 108.755 47.783C109.658 47.1813 110.733 46.8804 111.98 46.8804C113.227 46.8804 114.3 47.1813 115.198 47.783C116.1 48.3848 116.794 49.2583 117.28 50.4036C117.765 51.544 118.005 52.9271 118 54.5529C118 56.1883 117.758 57.586 117.272 58.7458C116.792 59.9057 116.103 60.7913 115.205 61.4028C114.307 62.0143 113.232 62.32 111.98 62.32ZM111.98 59.7067C112.834 59.7067 113.516 59.2772 114.026 58.4182C114.535 57.5593 114.788 56.2708 114.783 54.5529C114.783 53.4221 114.666 52.4807 114.433 51.7285C114.205 50.9763 113.88 50.4109 113.458 50.0324C113.04 49.6538 112.548 49.4646 111.98 49.4646C111.131 49.4646 110.451 49.8892 109.942 50.7385C109.432 51.5877 109.175 52.8592 109.17 54.5529C109.17 55.6982 109.284 56.6542 109.512 57.421C109.745 58.1829 110.073 58.7555 110.495 59.1389C110.917 59.5174 111.412 59.7067 111.98 59.7067Z" fill="white"></path><path d="M102.471 62.1812C101.99 62.1812 101.578 62.0114 101.233 61.6717C100.893 61.3271 100.724 60.9146 100.724 60.4342C100.724 59.9586 100.893 59.5509 101.233 59.2112C101.578 58.8715 101.99 58.7017 102.471 58.7017C102.937 58.7017 103.344 58.8715 103.694 59.2112C104.043 59.5509 104.218 59.9586 104.218 60.4342C104.218 60.7545 104.135 61.0481 103.97 61.315C103.81 61.577 103.599 61.7881 103.337 61.9483C103.075 62.1036 102.786 62.1812 102.471 62.1812Z" fill="white"></path><path d="M93.3423 62.196C92.3135 62.196 91.3963 62.0068 90.5907 61.6282C89.7899 61.2497 89.1542 60.728 88.6835 60.0632C88.2127 59.3983 87.9677 58.6364 87.9482 57.7774H91.0056C91.0396 58.3549 91.2822 58.8232 91.7335 59.1824C92.1849 59.5415 92.7211 59.721 93.3423 59.721C93.8373 59.721 94.2741 59.6119 94.6526 59.3935C95.036 59.1702 95.3344 58.8621 95.5479 58.469C95.7663 58.071 95.8755 57.6149 95.8755 57.1005C95.8755 56.5763 95.7639 56.1153 95.5407 55.7174C95.3223 55.3194 95.019 55.0088 94.6307 54.7856C94.2425 54.5624 93.7985 54.4483 93.2986 54.4435C92.8618 54.4435 92.4372 54.5332 92.0247 54.7128C91.6171 54.8924 91.2992 55.1374 91.0711 55.448L88.2685 54.9457L88.9746 47.084H98.0885V49.6609H91.5734L91.1876 53.3952H91.2749C91.537 53.0264 91.9325 52.7207 92.4615 52.478C92.9905 52.2354 93.5825 52.1141 94.2377 52.1141C95.1355 52.1141 95.9362 52.3252 96.6399 52.7474C97.3435 53.1696 97.8992 53.7495 98.3068 54.4871C98.7145 55.2199 98.9159 56.0644 98.911 57.0204C98.9159 58.0249 98.683 58.9179 98.2122 59.6992C97.7463 60.4757 97.0936 61.0871 96.2541 61.5336C95.4194 61.9752 94.4488 62.196 93.3423 62.196Z" fill="white"></path><path d="M81.2908 50.8105V53.2491H76.6465V61.9917H73.6328V50.8105H81.2908Z" fill="white"></path><path d="M69.2836 55.1636V57.6022H63.4456V55.1636H69.2836ZM64.4647 50.8105V61.9917H61.502V50.8105H64.4647ZM71.2272 50.8105V61.9917H68.2864V50.8105H71.2272Z" fill="white"></path><path d="M51.9334 57.9007L55.9589 50.8105H59.0163V61.9917H56.0609V54.8797L52.0499 61.9917H48.9707V50.8105H51.9334V57.9007Z" fill="white"></path><path d="M36.958 53.2491V50.8105H47.091V53.2491H43.4876V61.9917H40.5322V53.2491H36.958Z" fill="white"></path><path d="M28.5115 57.9011L32.5371 50.8109H35.5944V61.9921H32.639V54.8801L28.628 61.9921H25.5488V50.8109H28.5115V57.9011ZM32.0057 46.9092H34.1677C34.1628 47.7924 33.8352 48.5034 33.1849 49.042C32.5395 49.5807 31.666 49.8501 30.5643 49.8501C29.4579 49.8501 28.5819 49.5807 27.9365 49.042C27.291 48.5034 26.9683 47.7924 26.9683 46.9092H29.1157C29.1109 47.244 29.2177 47.5449 29.436 47.8118C29.6593 48.0787 30.0354 48.2122 30.5643 48.2122C31.0788 48.2122 31.4476 48.0812 31.6708 47.8191C31.8941 47.557 32.0057 47.2537 32.0057 46.9092Z" fill="white"></path><path d="M18.3936 62.2102C17.2434 62.2102 16.2534 61.9772 15.4236 61.5114C14.5986 61.0406 13.9629 60.3758 13.5164 59.5168C13.0699 58.653 12.8467 57.6314 12.8467 56.4522C12.8467 55.302 13.0699 54.2926 13.5164 53.4239C13.9629 52.5553 14.5913 51.8783 15.4018 51.393C16.217 50.9077 17.1731 50.665 18.2698 50.665C19.0075 50.665 19.6942 50.7839 20.3299 51.0217C20.9705 51.2547 21.5286 51.6065 22.0042 52.0772C22.4846 52.548 22.8583 53.14 23.1252 53.8534C23.3921 54.562 23.5256 55.3918 23.5256 56.343V57.1947H14.0842V55.2729H20.6065C20.6065 54.8264 20.5095 54.4309 20.3154 54.0864C20.1212 53.7418 19.8519 53.4725 19.5073 53.2783C19.1676 53.0794 18.7721 52.9799 18.3208 52.9799C17.8501 52.9799 17.4327 53.0891 17.0687 53.3075C16.7096 53.521 16.4282 53.8097 16.2243 54.1737C16.0205 54.5328 15.9162 54.9332 15.9113 55.3748V57.202C15.9113 57.7552 16.0132 58.2332 16.217 58.636C16.4257 59.0388 16.7193 59.3494 17.0979 59.5678C17.4764 59.7861 17.9253 59.8953 18.4445 59.8953C18.7891 59.8953 19.1045 59.8468 19.3909 59.7497C19.6772 59.6527 19.9223 59.5071 20.1261 59.313C20.3299 59.1189 20.4852 58.8811 20.592 58.5996L23.4601 58.7889C23.3145 59.478 23.016 60.0797 22.5647 60.5942C22.1182 61.1037 21.5407 61.5017 20.8322 61.788C20.1285 62.0695 19.3157 62.2102 18.3936 62.2102Z" fill="white"></path><path d="M0.264648 61.9922V47.084H6.14641C7.27715 47.084 8.24046 47.2999 9.03634 47.7319C9.83222 48.1589 10.4388 48.7534 10.8562 49.5153C11.2784 50.2724 11.4895 51.1459 11.4895 52.1359C11.4895 53.1259 11.276 53.9994 10.8489 54.7565C10.4219 55.5135 9.80311 56.1032 8.99266 56.5254C8.18708 56.9476 7.21163 57.1587 6.06634 57.1587H2.31744V54.6327H5.55678C6.1634 54.6327 6.66325 54.5284 7.05634 54.3197C7.45428 54.1062 7.75031 53.8126 7.94443 53.4389C8.1434 53.0604 8.24288 52.626 8.24288 52.1359C8.24288 51.6409 8.1434 51.209 7.94443 50.8402C7.75031 50.4665 7.45428 50.1777 7.05634 49.9739C6.6584 49.7652 6.15369 49.6609 5.54222 49.6609H3.41663V61.9922H0.264648Z" fill="white"></path><path d="M10 73L12.9389 78.9549L19.5106 79.9098L14.7553 84.5451L15.8779 91.0902L10 88L4.12215 91.0902L5.24472 84.5451L0.489435 79.9098L7.06107 78.9549L10 73Z" fill="#FFB919"></path><path d="M59 73L61.9389 78.9549L68.5106 79.9098L63.7553 84.5451L64.8779 91.0902L59 88L53.1221 91.0902L54.2447 84.5451L49.4894 79.9098L56.0611 78.9549L59 73Z" fill="#FFB919"></path><path d="M34 73L36.9389 78.9549L43.5106 79.9098L38.7553 84.5451L39.8779 91.0902L34 88L28.1221 91.0902L29.2447 84.5451L24.4894 79.9098L31.0611 78.9549L34 73Z" fill="#FFB919"></path><path d="M84 73L86.9389 78.9549L93.5106 79.9098L88.7553 84.5451L89.8779 91.0902L84 88L78.1221 91.0902L79.2447 84.5451L74.4894 79.9098L81.0611 78.9549L84 73Z" fill="#FFB919"></path><path d="M109 73L111.939 78.9549L118.511 79.9098L113.755 84.5451L114.878 91.0902L109 88L103.122 91.0902L104.245 84.5451L99.4894 79.9098L106.061 78.9549L109 73Z" fill="#FFB919"></path></svg> 